# xmcd CD database file
#
# Track frame offsets:
#	150
#	20827
#	41762
#
# Disc length: 831 seconds
#
# Revision: 3
# Processed by: cddbd v1.5.2PL0 Copyright (c) Steve Scherf et al.
# Submitted via: CDex 1.51
#
DISCID=22033d03
DTITLE=川添智久 - STAND UP TO THE VICTORY
DYEAR=1993
DGENRE=アニメ･特撮
TTITLE0=STAND UP TO THE VICTORY
TTITLE1=ROCK TRAINに飛び乗って
TTITLE2=STAND UP TO THE VICTORY （カラオケ）
EXTD=YEAR: 1993
EXTT0=
EXTT1=
EXTT2=
PLAYORDER=
